<?xml version="1.0"?>
<svg xmlns:rdf="http://www.w3.org/1999/02/22-rdf-syntax-ns#" xmlns="http://www.w3.org/2000/svg" xmlns:cc="http://web.resource.org/cc/" xmlns:dc="http://purl.org/dc/elements/1.1/" xmlns:svg="http://www.w3.org/2000/svg" id="svg2" viewBox="0 0 565 339" version="1.0">
  <rect id="rect3615" y="-4.2108" width="600" x="-30.389" height="358.29"/>
  <g id="g5555" transform="matrix(1.0541 0 0 1.0541 117.87 -409.84)">
    <path id="path2593" fill="#e40000" d="m97.356 692.96c0.771-6.15 3.304-14.23 6.774-21.56 3.26-6.9 3.65-12.05 1.41-18.41-2.09-5.9-1.74-11.82 0.74-12.61 1.33-0.42 1.77-1.23 1.41-2.61-0.29-1.1 0.6-5.35 1.98-9.45 3.02-8.98 2.82-13.6-0.79-18.67-1.5-2.09-3.02-5.24-3.38-7-0.62-2.98-4.71-12-8.03-17.69-0.969-1.66-1.412-5.01-1.32-10 0.144-7.77-1.637-16.95-3.536-18.23-2.756-1.87-3.44-0.74-2.875 4.73 0.39 3.78 0.211 5.5-0.573 5.5-0.627 0-1.139-0.75-1.139-1.67 0-2.38-1.473-0.59-1.642 2-0.078 1.2-1.334 6.45-2.791 11.67-3.885 13.93-6.428 26.02-6.646 31.59-0.206 5.25 0.962 16.29 1.891 17.87 0.309 0.52 0.667 1.94 0.795 3.14s1.393 4.72 2.812 7.82c1.42 3.1 2.581 6.23 2.581 6.95 0 0.73 0.9 2.13 2 3.13s2 2.59 2 3.53c0 0.95 0.626 2.25 1.391 2.88 1.806 1.5 2.69 4.92 1.466 5.68-0.55 0.34-0.587 1.08-0.089 1.75 0.476 0.64 0.98 7.64 1.119 15.55 0.195 11.05 0.618 14.95 1.819 16.78 0.86 1.32 1.676 2.27 1.811 2.11 0.136-0.15 0.501-2.3 0.812-4.78zm-3.577-52c-1.834-6-4.785-19.95-4.653-22 0.089-1.37-0.308-4.45-0.882-6.84-0.575-2.39-0.882-8.58-0.683-13.78 0.289-7.52 0.763-9.94 2.345-11.95l1.984-2.53 0.706 4.72c0.409 2.72 0.286 5.38-0.291 6.31-0.601 0.96-0.655 2.52-0.137 3.92 0.475 1.29 0.584 2.79 0.244 3.34-0.341 0.55-0.084 3.77 0.571 7.15 2.331 12.06 1.971 11.16 3.745 9.39 0.871-0.87 1.778-3.53 2.015-5.9 0.446-4.46 0.886-5.56 1.837-4.61 1.63 1.64-0.17 18.12-2.706 24.78-1.154 3.03-2.444 6.4-2.867 7.5-0.598 1.55-0.871 1.67-1.228 0.5zm-17.715 18.75c0.543-1.24 1.793-3.6 2.777-5.25 2.154-3.61 2.092-8.98-0.189-16.5-3.987-13.14-5.895-32.56-3.753-38.2 2.07-5.46 3.388-10.34 3.586-13.29 0.117-1.74 0.502-3.64 0.856-4.21 1.244-2.01 2.509-17.63 1.619-19.98-0.662-1.74-1.66-2.32-3.974-2.32-1.7 0-3.914-0.44-4.92-0.98-2.304-1.23-4.474 1.04-3.606 3.77 0.33 1.04-0.098 3.56-0.949 5.59-0.851 2.04-1.299 4.11-0.995 4.6s-0.055 1.26-0.798 1.71c-1.867 1.12-4.482 9.69-5.803 19.01-2.149 15.16 0.952 32.46 7.713 43.03 1.865 2.91 3.312 5.63 3.218 6.03-0.095 0.41 0.353 2.58 0.996 4.82s1.271 6.4 1.394 9.25c0.241 5.53 1.232 6.56 2.828 2.92zm-11.371-57.42c-1.234-1.23-0.649-8.78 1.266-16.33 2.549-10.05 3.854-13.24 5.232-12.78 1.141 0.38 2.005 9.78 0.899 9.78-0.839 0-3.413 6.09-3.807 9-0.186 1.38-0.592 4.41-0.903 6.75-0.541 4.08-1.249 5.02-2.687 3.58zm28.586-112.14c3.436-3.38 8.951-8.1 12.251-10.49 6.15-4.45 29.8-17.7 31.6-17.7 2.64 0 6.92-3.35 9.2-7.22 5.1-8.62 13.54-17.53 24.2-25.57 3.3-2.48 6.45-5.04 7-5.68 0.55-0.63 1.9-1.5 3-1.91 1.89-0.72 1.9-0.83 0.23-2.06-0.98-0.73-1.51-1.98-1.19-2.82 0.43-1.12-0.38-1.67-3.23-2.16-5.59-0.97-26.9-3.23-32.05-2.7-11.79 1.21-14.01 1.82-18.81 3.53-3.31 1.18-9.83 3-13.79 5.55-4.47 2.87-8.66 5.39-8.66 5.81 0 0.43-2.33 1.5-4.8 4.19-2.475 2.7-7.185 7.03-10.003 11.31-2.657 4.04-4.145 6.92-7.435 13.43-2.305 4.55-3.764 10.64-4.19 13.12-1.354 7.89-2.372 20.37-0.659 28.05 0.046 0.21 2.559 0.17 5.586-0.08 5.162-0.43 5.887-0.83 11.75-6.6zm71.141-39.64c17.49-5.98 33.75-7.92 43.05-5.12l4.75 1.43-0.69-3.68c-0.38-2.02-1.13-3.95-1.66-4.28-0.54-0.33-1.1-1.44-1.25-2.48-0.15-1.03-1.14-2.11-2.19-2.4-1.04-0.28-3.16-1.63-4.69-2.98-7.12-6.3-13.92-5.13-28.36 4.89-10.12 7.02-22.17 18.07-19.71 18.07 0.36 0 5.2-1.55 10.75-3.45z"/>
    <path id="path2589" d="m90.027 580.96c0-1.28 0.708-1.28 1.5 0 0.339 0.55 0.141 1-0.441 1-0.583 0-1.059-0.45-1.059-1zm-111.02 83.01c1.81-0.97 3.565-5.47 6.049-15.51 0.68-2.75 2.258-6.81 3.506-9.01 5.4224-9.59 25.935-24.82 54.439-40.41 13.736-7.52 15.712-9.23 16.521-14.31 0.374-2.35 1.356-6.67 2.184-9.59 0.827-2.93 1.334-5.5 1.128-5.7-0.207-0.21-3.286 1.66-6.843 4.15-3.556 2.5-11.866 7.19-18.466 10.43-21.377 10.49-43.416 16.47-66 17.89-9.258 0.59-13.086 1.28-16.75 3.02-2.613 1.24-4.75 2.61-4.75 3.06s2.307 1.58 5.128 2.51c4.05 1.35 7.364 1.6 15.75 1.19 16.336-0.8 31.96-5.56 44.567-13.58 5.822-3.71 9.391-4.26 4.452-0.7-14.387 10.39-29.547 15.55-50.147 17.08l-8.75 0.65v4.01c0 3.22 0.629 4.6 3.182 6.98l3.183 2.97 8.046-2.65c9.439-3.12 10.422-3.61 16.29-8.09 2.4486-1.87 5.2047-3.4 6.1251-3.4 1.0567 0.01 0.5159 0.71-1.4675 1.92-1.7275 1.06-3.4528 2.42-3.834 3.04-0.3813 0.62-2.4728 2.24-4.6476 3.62-4.268 2.69-5.338 4.68-7.504 13.92-2.663 11.36-2.557 11.23-12.96 16.48-2.702 1.36-5.095 2.6-5.316 2.74-0.579 0.36 4.622 4.47 8.269 6.53 3.516 1.98 5.931 2.2 8.616 0.76zm92.033-96.26c0.012-1.82 0.201-1.96 0.985-0.75 1.252 1.94 1.252 3 0 3-0.55 0-0.994-1.01-0.985-2.25zm-113.59 90.68c0.864-0.87 1.572-1.9 1.572-2.3s1.51-1.27 3.356-1.94 4.196-2.14 5.221-3.28c1.827-2.01 1.808-2.16-0.975-7.3-2.378-4.4-2.724-5.93-2.134-9.42 0.638-3.78 0.415-4.46-2.382-7.26-1.894-1.89-3.092-4.12-3.1-5.76-0.023-4.57-1.063-6.88-3.618-8.05-4.277-1.95-6.125-1.39-7.314 2.22-0.605 1.83-2.44 4.61-4.078 6.18-3.513 3.37-3.639 4.37-0.976 7.75 1.1 1.4 2 3.65 2 5s1.157 4.16 2.571 6.24c1.767 2.6 2.505 4.92 2.36 7.39-0.354 6.04-0.014 7.63 2.107 9.91 2.426 2.6 3.304 2.71 5.39 0.62zm366.6-11.02c1.35-3.54-2.04-9.49-7.44-13.06-2.24-1.48-3.52-2.88-2.85-3.1 3.66-1.22 13.26 9.94 13.26 15.4 0 1.84 0.41 3.35 0.91 3.35 1.22 0 5.09-6.31 5.09-8.3 0-0.86 1.3-2.49 2.88-3.62 1.59-1.13 3.61-3.85 4.49-6.05s2.47-4.87 3.54-5.94c4.16-4.16 5.33-10.27 2.96-15.46-0.93-2.06-0.77-2.97 1-5.45 2.82-3.96 2.69-5.52-0.79-9.41-2.61-2.93-3.48-3.27-8.32-3.27-4.18 0-6.32 0.6-9.43 2.66-7.92 5.24-16.23 6.08-28.4 2.88-9.37-2.47-31.58-11.32-43.68-17.4-5.08-2.56-15.88-7.31-24-10.56-8.11-3.25-18.25-7.36-22.53-9.13s-8.06-2.95-8.39-2.62c-0.68 0.68-0.85 4.65-0.54 12.73l0.21 5.56 5.25 1.31c14.02 3.5 42.2 16.61 57.25 26.64 8.74 5.82 21.87 17.83 25.68 23.47 2.02 3.01 7.19 9.17 11.5 13.71l7.82 8.25h6.77c6.37 0 6.83-0.15 7.76-2.59zm3.97-13.06c-1.93-0.86-4.63-1.97-6-2.46-1.87-0.66-1.29-0.77 2.29-0.4 5.12 0.52 8.71 1.98 8.71 3.55 0 1.29-0.86 1.17-5-0.69zm-6.38-6.38c-3.88-1.16-7.22-4.47-10.36-10.22-3.26-6-8.68-9.66-20.58-13.92-7.46-2.66-8.66-3.37-6.65-3.87 2.63-0.65 8.58 1.11 21.23 6.27l7.76 3.17 6.5-2.11c6.35-2.07 10.67-1.92 14.03 0.46 1.69 1.21 3.56 8.94 2.88 11.96-1.3 5.86-1.72 6.51-5 7.88-3.75 1.57-5.59 1.64-9.81 0.38zm11.43-3.54c0.72-0.86 1.34-3.75 1.37-6.42 0.14-9.2-6.6-12.52-16.11-7.92-2.37 1.15-4.31 2.77-4.31 3.61 0 2.93 4.33 9.21 7.4 10.73 4.06 2 9.99 2 11.65 0zm4.8-20.39c2.53-2.35 3.25-3.73 2.89-5.58-0.36-1.88-0.04-2.46 1.35-2.46 1.47 0 1.75 0.67 1.49 3.53-0.37 4.22-0.19 4-5.13 6.02l-3.95 1.61 3.35-3.12zm-7.85-2.04c-1.19-0.77-0.97-0.97 1.02-0.98 1.39-0.01 3.53-0.72 4.75-1.58 1.83-1.28 2.23-1.3 2.23-0.16 0 0.77-1.15 1.92-2.55 2.56-3.06 1.39-3.52 1.41-5.45 0.16zm-354.81 42.99c0.403-1.37 1.805-6.02 3.116-10.33l2.383-7.85-2.922 0.59c-3.828 0.76-10.509 5.58-11.165 8.04-0.284 1.07 0.324 3.54 1.352 5.5s2.132 4.38 2.453 5.38c0.819 2.55 3.892 1.7 4.783-1.33zm171.35-10.57c3.15-1.32 4.5-1.39 8.02-0.4 2.33 0.65 5.58 0.89 7.23 0.53 4.26-0.94 15.08-11.08 17.61-16.52 1.17-2.49 3.58-6.64 5.36-9.21s3.24-4.99 3.24-5.36c0-2.39 7.75-19.46 9.88-21.76 2.42-2.62 2.6-3.49 2.7-13 0.06-5.61 0.28-10.65 0.49-11.2 0.45-1.2-2.04-10.63-3.14-11.87-0.43-0.48-1.9 1.32-3.28 4-1.37 2.68-3.66 6.42-5.07 8.31-1.42 1.9-2.6 4.37-2.63 5.5-0.08 3.89-2.88 10.03-5.42 11.88-1.39 1.02-2.53 2.48-2.53 3.26s-0.74 1.42-1.64 1.42c-0.91 0-2.24 0.79-2.97 1.75-1.6 2.11-1.8 5.25-0.33 5.25 0.58 0 0.75 0.5 0.37 1.11-0.49 0.78-0.9 0.75-1.45-0.13-0.93-1.5-2.98-0.41-2.98 1.58 0 0.79-0.45 1.44-1 1.44s-1 0.63-1 1.39c0 0.77-1.15 1.68-2.56 2.04-2.09 0.52-2.43 1.04-1.88 2.85 0.97 3.14 1.2 3.24 3.26 1.38 1.01-0.91 2.43-1.66 3.15-1.66s-0.87 1.67-3.55 3.71l-4.86 3.71-12.03 0.4-12.03 0.41v-3.87c0-2.55-0.43-3.78-1.25-3.61-0.69 0.14-1.25-0.2-1.25-0.75s-0.68-1-1.5-1c-0.83 0-1.5 0.68-1.5 1.5 0 0.83-0.71 1.5-1.57 1.5-1.43 0-1.43-0.14 0-1.57 1.81-1.82 1.99-3.05 0.56-3.93-0.55-0.35-1.28 0.08-1.61 0.94-0.67 1.75-3.38 2.15-3.38 0.5 0-0.58 0.38-0.82 0.85-0.53 1.5 0.93 5.03-4 3.96-5.54-0.75-1.06-1.08-1.09-1.47-0.12-0.28 0.69-1.15 1.25-1.93 1.25s-1.41 0.51-1.41 1.12c0 0.78-0.47 0.74-1.5-0.12-0.83-0.68-1.5-1.98-1.49-2.87 0.02-1.42 0.14-1.44 1-0.13 0.88 1.33 1.1 1.33 1.97 0 1.47-2.24 1.22-3.19-0.73-2.78-2.32 0.49-5.25-2.89-5.25-6.04 0-1.38-0.25-2.27-0.54-1.97-0.68 0.67-6.46-4.32-6.46-5.57 0-0.51-1.41-3.21-3.14-6.01-1.72-2.8-3.63-6.47-4.25-8.17-1.2-3.3-8.891-10.85-9.965-9.78-1.133 1.14-0.7 9.7 0.778 15.38 0.885 3.39 1.219 7.76 0.881 11.49-0.516 5.68-0.29 6.51 4.076 14.98 2.54 4.94 4.62 9.65 4.64 10.47 0.06 3.91 3.99 10.04 7.53 11.73 2.68 1.28 4.4 3.21 6.47 7.26 3.02 5.92 10.9 14.29 14.98 15.9 3.69 1.45 7.28 1.31 11.54-0.47zm-12.4-31.31c-0.83-0.53-0.97-1.1-0.36-1.48 0.56-0.34 1.26 0.05 1.58 0.88 0.66 1.72 0.6 1.75-1.22 0.6zm35.94-9.53c-0.05-1.05 0.19-1.64 0.52-1.31s0.37 1.2 0.08 1.92c-0.32 0.8-0.56 0.56-0.6-0.61zm-27.08 6.4c0-1.8-2.32-3.33-3.41-2.24-0.8 0.8-0.76 4.76 0.06 5.58 1.01 1.01 3.35-1.33 3.35-3.34zm5 0.52c0-2.48-0.45-3.5-1.53-3.5-2.11 0-2.85 2.42-1.52 4.92 1.68 3.14 3.05 2.5 3.05-1.42zm4.81 0.17c0.23-1.89-0.14-2.67-1.25-2.67-1.08 0-1.56 0.95-1.56 3.08 0 3.83 2.35 3.49 2.81-0.41zm5.19-0.75c0-3.83-2.36-3.49-2.82 0.41-0.22 1.89 0.14 2.67 1.25 2.67 1.08 0 1.57-0.95 1.57-3.08zm5 0.14c0-3.25-1.6-4.86-3.22-3.25-1.42 1.43-0.09 6.19 1.74 6.19 0.97 0 1.48-1.01 1.48-2.94zm9.2-17.07c0.94-1.64 1.3-2.99 0.82-2.99-0.49 0-1.17 0.9-1.52 2s-1.06 2-1.57 2-0.93 0.45-0.93 1c0 1.91 1.51 0.97 3.2-2.01zm-42.7 1.01c-0.34-0.55-1.3-1-2.12-1-0.83 0-1.22 0.45-0.88 1s1.29 1 2.11 1c0.83 0 1.23-0.45 0.89-1zm-1.08-4.13c-0.38-0.6-1.11-0.54-1.97 0.17-0.75 0.62-1.8 0.86-2.34 0.53-1.18-0.73-2.46 1.07-1.66 2.35 0.32 0.52 1.86 0.27 3.57-0.58 1.65-0.82 2.73-1.93 2.4-2.47zm12.06-1.85c0.38-0.62 1.36-0.52 2.62 0.25 1.7 1.04 2.24 0.93 3.46-0.71 1.77-2.39 1.87-6.71 0.19-8.47-1.02-1.07-0.85-1.19 0.96-0.65 1.22 0.37 3.06 0.22 4.09-0.33 2.81-1.51 6.2-0.26 6.17 2.26-0.03 1.93-0.13 1.96-1.05 0.38-1.17-2.01-4.96-2.32-6.72-0.55-1.78 1.78-1.51 7.47 0.38 8.19 3.08 1.19 5.6 0.61 6.13-1.39 0.62-2.37 2.29-2.68 2.29-0.43 0 1.12 0.78 1.47 2.75 1.25 2.37-0.28 2.72-0.73 2.54-3.32-0.18-2.7-0.13-2.76 0.53-0.57 1 3.3 2.98 3.74 4.11 0.9 0.77-1.9 0.95-1.98 1-0.47 0.06 1.6 0.59 1.77 3.81 1.16 2.07-0.39 4.04-1.17 4.39-1.74s1.14-0.73 1.75-0.35c0.64 0.39 1.12 0.02 1.12-0.87 0-0.86 0.56-1.45 1.25-1.31 1.64 0.33 1.64-4.45 0-5-0.76-0.25-1.26 0.5-1.27 1.92-0.01 1.35-0.32 1.86-0.75 1.2-0.4-0.62-1.86-1.07-3.23-1-2.04 0.12-2.46 0.61-2.26 2.64 0.24 2.46 0.23 2.46-0.72 0.24-1.1-2.59-4.02-3.04-4.02-0.63 0 1.26-0.31 1.37-1.37 0.49-0.75-0.62-2.21-1.06-3.25-0.96-3.59 0.32-5.05-0.16-5.05-1.65 0-0.92 0.93-1.5 2.39-1.5 1.34 0 2.12 0.44 1.78 1-0.34 0.55 0.11 1 1 1s1.33-0.47 0.97-1.04c-0.41-0.66 0.21-0.83 1.7-0.45 1.29 0.32 4.03-0.12 6.09-0.97 2.86-1.2 3.74-1.27 3.77-0.3 0.02 0.85 0.43 0.74 1.25-0.33 0.67-0.87 1.75-1.4 2.41-1.18 0.82 0.27 1.18-1.12 1.17-4.42-0.02-2.64 0.42-5.99 0.98-7.42 1.22-3.18 7.47-8.5 11.04-9.4 3.63-0.91 5.12-2.36 5.12-4.99 0-2.24-2.21-4.96-3.21-3.96-0.29 0.29-0.32-0.56-0.07-1.89 0.57-2.98-1.23-4.27-3.52-2.5-1.53 1.18-1.53 1.11 0.05-0.75 0.96-1.13 1.75-3.12 1.75-4.42 0-2.23 0.07-2.26 1.35-0.52 0.89 1.22 2.08 1.66 3.5 1.29 1.18-0.31 1.9-0.16 1.59 0.34s-1.69 0.91-3.06 0.91c-1.56 0-2.25 0.41-1.83 1.09 0.38 0.61 1.84 0.88 3.25 0.61l2.58-0.5-2.36 1.78-2.35 1.78 2.09 1.11c1.15 0.62 2.91 0.82 3.91 0.46 1.77-0.65 1.77-0.6 0.01 1.4-1.36 1.55-1.51 2.26-0.59 2.83 1.7 1.05 9.39-7.91 10.79-12.58 1.5-5.01 1.41-6.67-0.56-10.01-1.44-2.44-1.51-3.57-0.5-8.15 1.95-8.88 2.47-21.82 1.26-31.32-0.62-4.95-1.54-12.05-2.02-15.78-0.96-7.4-2.95-11.36-6.37-12.63-7.5-2.79-50.58 7.3-57.76 13.53-0.87 0.75-3.74 4.78-6.39 8.96-5.43 8.58-6.36 13.12-4.28 20.85 1.43 5.3 3.65 7.25 3.87 3.4l0.14-2.33 0.43 2.25c0.24 1.24 0.76 2.25 1.15 2.25s0.78 1.24 0.87 2.75c0.15 2.67 0.12 2.69-0.94 0.5-1.78-3.68-3.78-2.78-3.78 1.71 0 7.9-6.27 20.9-12.22 25.34-5.7 4.25-7.91 4.95-15.42 4.86-5.21-0.06-7.53 0.31-8.09 1.29-0.65 1.15-1.24 1.15-3.773-0.05-2.931-1.38-2.938-1.4-0.312-0.9 4.425 0.84 4.255-1.32-0.492-6.39-5.065-5.42-6.823-8.53-8.671-15.36-0.707-2.61-1.842-4.75-2.523-4.75-1.51 0-8.502 17.89-8.502 21.75 0 3.23 5.378 11.8 9 14.34 3.417 2.4 9.152 3.54 8.778 1.75-0.153-0.74-1.178-1.63-2.278-1.99-1.865-0.61-1.848-0.66 0.25-0.75 1.706-0.08 2.25-0.7 2.25-2.6 0-1.37 0.525-2.5 1.166-2.5 0.642 0 0.871 0.3 0.509 0.66s-0.1 1.35 0.583 2.19c0.835 1.03 0.855 1.31 0.077 0.84-1.485-0.89-2.059 0.83-1.514 4.55 0.438 2.98 0.659 3.15 5.412 4.19 1.5 0.33 4.31 1.99 6.25 3.69 3.33 2.92 3.52 3.43 3.52 9.42 0 3.49 0.45 6.62 1.01 6.97s0.75 1.07 0.41 1.61c-0.33 0.54 0.56 2.14 1.99 3.56 1.42 1.43 2.59 2.25 2.59 1.83 0-0.41 0.69-0.18 1.54 0.53 1.91 1.58 3 0.5 3.8-3.79 0.64-3.42-0.1-4.08-2.21-2-1.02 1-1.21 0.95-0.95-0.25 0.22-1.06-0.41-1.43-2.18-1.26-2.17 0.2-2.27 0.09-0.74-0.81 1.77-1.05 10.38-0.32 11.16 0.95 0.22 0.35 3.34 0.62 6.93 0.59 4.41-0.03 6.26 0.29 5.68 0.99-0.47 0.57-1.05 2.39-1.3 4.04l-0.43 3-0.15-3.28c-0.16-3.5-2.49-5.29-4.4-3.38-0.8 0.81-1.47 0.81-2.43 0.01-0.97-0.8-1.72-0.76-2.82 0.15-1.23 1.02-1.5 0.95-1.5-0.38 0-1.92-1.14-2.09-2.8-0.42-1.47 1.47-1.6 6.8-0.17 6.8 0.57 0 1.44-1.01 1.94-2.25 0.88-2.19 0.9-2.18 0.96 0.39 0.06 2.19 1.63 3.86 3.65 3.86 0.23 0 0.47-1.24 0.53-2.75 0.09-2.06 0.24-2.25 0.59-0.75 0.82 3.5 5.35 5.85 6.78 3.52zm-2.22-26.72c-3.24-0.63-5.26-4.11-5.26-9.06 0-5.75 9.54-29.23 11.88-29.25 0.89-0.01 2.6-0.28 3.8-0.6 1.88-0.51 2.34-0.02 3.27 3.44 0.6 2.22 3.32 8.33 6.05 13.57 4 7.71 4.85 10.17 4.38 12.82-0.67 3.75-5.47 8.78-8.37 8.78-1.99 0-5.01-4.49-5.01-7.45 0-0.85-0.45-1.55-1-1.55s-1 1.35-1 3c0 3.11-3.06 7.1-5.25 6.86-0.69-0.07-2.26-0.33-3.49-0.56zm37.24-24.92c-8.62-2.02-13.5-5.82-13.5-10.5 0-0.67-0.59-1.93-1.3-2.8-0.72-0.87-2.1-4.73-3.06-8.58-0.97-3.85-2.42-7.51-3.23-8.13-1.12-0.86-1.23-1.73-0.46-3.75 1.26-3.31 1.91-3.38 1.29-0.12-0.54 2.81 1.69 3.5 3.65 1.13 0.62-0.75 3.9-2.61 7.29-4.13 5.44-2.44 6.98-2.7 13.3-2.22 16.8 1.27 22.88 7.7 20.52 21.73-1.97 11.68-6.88 16.86-16.56 17.46-3.27 0.21-6.84 0.17-7.94-0.09zm-25.43-28.63c-0.05-1.17-0.88-1.75-2.51-1.75-2.25 0-2.39-0.28-1.86-3.75 0.75-4.83 1.3-5.43 1.3-1.42 0 1.75 0.45 3.17 1 3.17s1-0.45 1-1 0.39-1 0.88-1c1.31 0 1.92 3.25 1.03 5.52-0.66 1.69-0.78 1.72-0.84 0.23zm-64.978 58.18c1.598-1.14 2.905-2.66 2.905-3.39 0-1.5-2.781-2.98-4.912-2.62-3.278 0.56-8-1.07-8.6-2.95-0.343-1.09-1.193-1.97-1.889-1.97-0.74 0-1.266-1.25-1.266-3 0-1.65 0.262-3 0.583-3s0.678-1.35 0.793-3c0.302-4.31-1.173-3.69-3.074 1.28-1.917 5.03-2.001 6.86-0.548 12.1 2.255 8.12 9.592 11.12 16.008 6.55zm8.712-7.33c0.265-4.09 0.058-4.71-1.5-4.52-0.994 0.13-2.614-0.12-3.601-0.55-2.614-1.13-3.238 0.09-1.649 3.22 4.391 8.66 6.275 9.17 6.75 1.85zm112.13-2.62c2.63-5.06 2.88-6.11 1.59-6.61-1.75-0.67-6.35 2.02-7.19 4.2-0.73 1.9 0.52 8.43 1.61 8.43 0.47 0 2.26-2.71 3.99-6.02zm-121.93-2.86c0-1.03-0.596-2.37-1.324-2.97-1.059-0.88-1.236-0.51-0.886 1.87 0.478 3.26 2.21 4.12 2.21 1.1zm-4.291-2.12c-0.225-3.22-0.48-3.43-2.563-2.11-1.055 0.67-1.103 1.32-0.215 2.98 1.635 3.06 3.022 2.62 2.778-0.87zm-9.182-10.06c0.95-2.11 1.459-4.53 1.132-5.39-0.369-0.96-0.049-1.55 0.837-1.55 0.788 0 1.96-1.01 2.604-2.25s0.813-1.92 0.377-1.51c-0.87 0.81-3.477-0.96-3.477-2.36 0-0.48 0.888-0.88 1.974-0.88 1.193 0 2.604-1.22 3.565-3.08 1.511-2.92 1.491-3.1-0.392-3.59-1.091-0.29-2.535-1.85-3.209-3.48-1.036-2.5-1.703-2.91-4.332-2.65-2.318 0.22-3.032 0.74-2.813 2.05 0.227 1.35-0.407 1.75-2.781 1.75-3.502 0-4.915 2.21-2.938 4.59 0.928 1.12 2.241 1.39 4.611 0.94 3.239-0.61 3.315-0.54 3.315 2.87 0 3.45-0.04 3.48-3 2.45-1.65-0.57-3-1.4-3-1.83 0-0.93-4.032-2.12-5.044-1.49-1.232 0.76 2.185 9.34 3.893 9.78 0.908 0.23 0.638 0.31-0.599 0.19-2.321-0.23-3.126 1.84-1.182 3.04 0.587 0.37 0.809 1.34 0.492 2.16-0.318 0.83 0.411 2.53 1.627 3.79 2.902 3.02 5.968 1.71 8.34-3.55zm-5.527 0.06c-1.282-0.83-1.246-0.97 0.25-0.98 0.962-0.01 1.75 0.43 1.75 0.98 0 1.22-0.113 1.22-2 0zm13 2.44c0-0.24-0.45-0.44-1-0.44s-1 0.48-1 1.06 0.45 0.78 1 0.44 1-0.82 1-1.06zm154.5-13.96c22-12.45 37.34-19.36 59.59-26.83 5.72-1.92 12.43-4.42 14.91-5.55 3.05-1.39 6.75-2.09 11.5-2.16 8.36-0.13 18.16-1.27 19.11-2.22 0.38-0.38-0.51-1.64-1.98-2.79-4.08-3.22-5.93-7.57-5.36-12.64 0.27-2.4 1.26-5.22 2.21-6.27 2.33-2.57 1.14-4.02-3.29-4.01-4.54 0.01-11.67 3.26-21.34 9.71-8.32 5.56-19.75 10.98-24.9 11.8-3.28 0.53-3.23 0.46 1.05-1.4 9.5-4.13 20.77-10.09 27.5-14.55 3.85-2.56 8.01-4.9 9.25-5.22 2.87-0.73 2.87-2.16 0-3.27-2.56-0.98-5.92-4.44-7.73-7.95-1.2-2.32-1.29-2.25-4.37 3.31-6.19 11.14-15.21 17.8-35.37 26.08-14.08 5.79-55.19 27.01-57.53 29.69-1.93 2.22-2.3 5.84-0.76 7.38 1.3 1.31 1.45 4.68 0.5 11.26l-0.78 5.35 3.39-1.75c1.87-0.96 8.35-4.55 14.4-7.97zm-174.69-8.74c0.174-1.51 0.735-2.74 1.247-2.74s2.639-1.54 4.726-3.43c2.088-1.88 5.014-3.73 6.503-4.11 1.489-0.37 2.708-1.01 2.708-1.42 0-0.92-18.035-8.57-31.67-13.45-9.765-3.48-27.622-10.9-37.896-15.73-2.6884-1.26-9.1175-6.01-14.287-10.54-6.936-6.09-10.74-8.67-14.523-9.84-2.818-0.88-5.762-1.86-6.542-2.18-0.965-0.39-0.74 0.52 0.706 2.86 4.392 7.1 3.812 15.6-1.499 21.91-1.396 1.66-2.293 3.26-1.993 3.56s3.394 0.79 6.875 1.1c3.48 0.3 7.914 1.34 9.852 2.31s5.763 2.08 8.5 2.46c7.6945 1.08 24.86 5.51 25.977 6.72 0.702 0.75 0.405 0.86-1 0.35-3.865-1.41-21.434-5.57-23.529-5.57-1.1655 0-5.348-1.07-9.295-2.37-6.471-2.13-17.676-4.13-17.676-3.14 0 0.21 0.715 3.45 1.589 7.2 0.874 3.74 1.367 8.5 1.095 10.56-0.58 4.4 1.066 5.01 4.267 1.57 1.885-2.02 2.901-2.17 14.289-2.06 14.64 0.15 16.571 0.62 45.76 11.1 12.375 4.45 23.175 7.98 24 7.85 0.825-0.12 1.642-1.46 1.816-2.97zm-92.721-11.92c1.525-2.85 0.591-14.06-1.635-19.63-1.808-4.52-12.888-15.55-16.593-16.51-4.44-1.17-8.867 7.3-8.867 16.95 0 11.25 10.206 21.04 22.214 21.29 2.841 0.06 3.989-0.43 4.881-2.1zm137.91-4.29c6.23-1.65 19.66-8.38 24.65-12.36 3.67-2.93 13.9-17.95 12.9-18.95-0.76-0.76-21.5 9.73-29.06 14.7-6.49 4.27-20.493 16.05-20.493 17.24 0 1.29 5.884 0.98 12.003-0.63zm242.25-21.58c2.39-2.59 2.74-3.79 2.73-9.22-0.02-7.54-0.86-9.22-4.11-8.19-4.43 1.4-9.81 5.44-11.43 8.56-1.95 3.78-1.27 7.17 2.15 10.58 3.13 3.14 6.7 2.56 10.66-1.73zm-378.7-2.6c1.351-1.46 2.983-4.41 3.626-6.55 1.023-3.42 0.901-4.45-0.98-8.33-3.4-6.99-10.597-7.38-14.458-0.77-1.544 2.65-1.688 3.84-0.835 6.92 0.959 3.48 7.45 11.38 9.344 11.38 0.465 0 1.951-1.19 3.303-2.65zm372.38-17.33c8.44-2.42 11.49-10.12 6.78-17.12-5.35-7.95-20.63-7.49-28.35 0.84-3.63 3.92-3.2 8.51 1.13 11.96 6.14 4.9 13.21 6.39 20.44 4.32z" fill="#fff"/>
  </g>
  <metadata>
    <rdf:RDF>
      <cc:Work>
        <dc:format>image/svg+xml</dc:format>
        <dc:type rdf:resource="http://purl.org/dc/dcmitype/StillImage"/>
        <cc:license rdf:resource="http://creativecommons.org/licenses/publicdomain/"/>
        <dc:publisher>
          <cc:Agent rdf:about="http://openclipart.org/">
            <dc:title>Openclipart</dc:title>
          </cc:Agent>
        </dc:publisher>
        <dc:title>drapeau pirate</dc:title>
        <dc:date>2008-05-31T15:45:00</dc:date>
        <dc:description>cartoon, cartoon, clip art, clipart, flag, flag, image, media, pirate, pirate, public domain, svg, </dc:description>
        <dc:source>http://openclipart.org/detail/17212/drapeau-pirate-by-laurent</dc:source>
        <dc:creator>
          <cc:Agent>
            <dc:title>laurent</dc:title>
          </cc:Agent>
        </dc:creator>
        <dc:subject>
          <rdf:Bag>
            <rdf:li>cartoon</rdf:li>
            <rdf:li>clip art</rdf:li>
            <rdf:li>clipart</rdf:li>
            <rdf:li>flag</rdf:li>
            <rdf:li>image</rdf:li>
            <rdf:li>media</rdf:li>
            <rdf:li>pirate</rdf:li>
            <rdf:li>public domain</rdf:li>
            <rdf:li>svg</rdf:li>
          </rdf:Bag>
        </dc:subject>
      </cc:Work>
      <cc:License rdf:about="http://creativecommons.org/licenses/publicdomain/">
        <cc:permits rdf:resource="http://creativecommons.org/ns#Reproduction"/>
        <cc:permits rdf:resource="http://creativecommons.org/ns#Distribution"/>
        <cc:permits rdf:resource="http://creativecommons.org/ns#DerivativeWorks"/>
      </cc:License>
    </rdf:RDF>
  </metadata>
</svg>
